<?xml version="1.0" standalone="no"?>
<!DOCTYPE svg PUBLIC "-//W3C//DTD SVG 20010904//EN"
 "http://www.w3.org/TR/2001/REC-SVG-20010904/DTD/svg10.dtd">
<svg version="1.0" xmlns="http://www.w3.org/2000/svg"
 width="800.000000pt" height="800.000000pt" viewBox="0 0 800.000000 800.000000"
 preserveAspectRatio="xMidYMid meet">
<metadata>
Created by potrace 1.14, written by Peter Selinger 2001-2017
</metadata>
<g transform="translate(0.000000,800.000000) scale(0.100000,-0.100000)"
fill="#000000" stroke="none">
<path d="M3598 7112 c-10 -2 -18 -7 -18 -11 0 -5 -11 -25 -25 -45 -13 -20 -22
-36 -19 -36 3 0 -8 -19 -24 -42 -16 -24 -46 -74 -67 -113 -21 -38 -42 -71 -47
-73 -4 -2 -8 -8 -8 -13 0 -5 -20 -42 -44 -82 -24 -39 -67 -115 -97 -167 -29
-52 -56 -97 -61 -98 -4 -2 -6 -7 -3 -12 3 -4 -2 -13 -10 -20 -8 -7 -15 -19
-15 -26 0 -8 -3 -14 -7 -14 -5 0 -17 -19 -28 -43 -11 -23 -23 -44 -26 -47 -4
-3 -19 -30 -35 -60 -15 -30 -31 -57 -34 -60 -4 -3 -20 -30 -37 -60 -16 -30
-40 -73 -53 -95 -13 -22 -46 -80 -74 -128 -28 -49 -56 -96 -61 -105 -6 -9 -37
-64 -70 -122 -112 -196 -521 -910 -591 -1030 -63 -107 -92 -159 -130 -227 -15
-27 -30 -52 -34 -58 -4 -5 -19 -30 -32 -55 -14 -25 -34 -61 -45 -80 -11 -19
-64 -111 -118 -205 -54 -93 -104 -182 -112 -197 -8 -15 -18 -30 -24 -33 -5 -4
-9 -15 -9 -25 0 -10 -4 -20 -8 -22 -5 -1 -71 -112 -148 -246 -76 -133 -144
-250 -149 -260 -6 -9 -30 -53 -54 -97 -25 -44 -47 -82 -51 -85 -3 -3 -14 -21
-23 -40 -10 -19 -27 -48 -37 -65 -11 -16 -26 -43 -34 -60 -9 -16 -31 -57 -51
-90 -19 -33 -45 -79 -57 -102 -12 -24 -26 -43 -30 -43 -4 0 -8 -4 -8 -9 0 -5
-16 -38 -36 -73 -20 -34 -46 -81 -58 -103 -11 -22 -25 -44 -29 -50 -15 -19
-207 -359 -207 -367 0 -4 -4 -8 -9 -8 -5 0 -11 -6 -13 -12 -3 -11 -96 -179
-159 -287 -11 -19 -54 -93 -96 -165 -42 -72 -86 -149 -99 -171 -13 -22 -29
-52 -36 -67 -7 -16 -16 -28 -20 -28 -4 0 -8 -4 -8 -9 0 -5 -23 -49 -51 -98
-28 -48 -60 -102 -70 -120 -10 -17 -29 -49 -42 -70 -13 -21 -31 -52 -40 -68
l-15 -31 1199 1 1199 0 40 70 c22 39 45 77 50 85 6 8 16 26 22 40 7 14 19 36
29 50 9 14 27 45 41 70 14 25 57 100 95 167 39 67 73 128 77 135 3 7 15 27 26
43 11 17 25 41 32 55 7 14 39 70 72 125 32 55 69 118 81 140 25 46 21 40 202
354 75 130 146 253 159 273 13 21 24 40 24 43 0 3 11 22 23 43 13 20 35 57 49
82 14 25 60 106 103 180 43 74 83 144 89 155 6 11 13 22 16 25 6 6 50 86 65
117 5 13 13 23 18 23 4 0 7 4 7 9 0 5 23 49 51 98 29 48 86 147 127 218 41 72
88 153 104 180 16 28 34 61 41 75 6 14 14 27 17 30 4 3 18 25 31 50 14 25 35
62 47 83 34 58 60 104 83 145 11 20 33 57 48 82 14 25 34 59 44 75 9 17 79
137 154 268 76 131 150 259 164 285 15 26 36 63 48 82 11 19 26 46 33 60 7 14
15 27 18 30 3 3 16 26 30 52 13 26 27 45 31 42 4 -2 61 -99 126 -215 65 -116
129 -230 143 -254 77 -134 130 -230 130 -237 0 -4 4 -8 9 -8 5 0 15 -16 22
-35 7 -19 16 -35 20 -35 4 0 11 -10 15 -22 3 -13 12 -30 19 -38 7 -8 27 -42
44 -75 18 -32 41 -71 52 -86 10 -15 19 -30 19 -33 0 -4 63 -114 140 -245 76
-131 148 -254 158 -272 11 -19 114 -196 229 -394 116 -198 220 -376 231 -395
11 -19 56 -96 101 -170 45 -74 87 -147 93 -162 7 -16 16 -28 20 -28 4 0 8 -5
8 -11 0 -7 18 -40 40 -75 22 -35 40 -66 40 -69 0 -3 8 -18 19 -33 10 -15 58
-94 106 -177 49 -82 119 -201 157 -262 l68 -113 -38 -1 c-20 0 -199 0 -397 -1
l-359 0 -23 29 c-13 15 -23 31 -23 35 0 4 -25 48 -55 99 -30 50 -55 93 -55 94
0 2 -43 76 -96 166 -53 90 -106 182 -119 204 -31 55 -304 527 -315 545 -9 14
-153 262 -190 325 -32 56 -85 147 -101 173 -9 15 -26 44 -38 65 -50 87 -60
105 -90 155 -17 29 -31 57 -31 62 0 6 -3 10 -7 10 -5 0 -19 23 -32 50 -14 27
-30 51 -36 54 -7 2 -21 -12 -32 -32 -31 -58 -68 -122 -136 -239 -35 -59 -66
-115 -70 -123 -4 -8 -43 -76 -86 -150 l-79 -134 24 -43 c13 -24 36 -64 50 -90
15 -27 35 -60 45 -75 11 -14 19 -29 19 -33 0 -3 14 -26 30 -50 17 -24 30 -46
30 -49 0 -3 23 -45 52 -93 28 -48 50 -89 47 -89 -2 -1 3 -10 12 -20 22 -26
309 -521 309 -534 0 -5 5 -10 10 -10 6 0 10 -7 10 -15 0 -8 5 -15 10 -15 6 0
10 -4 10 -9 0 -7 64 -122 164 -292 19 -33 132 -228 214 -368 18 -31 37 -65 42
-76 6 -11 37 -65 70 -120 l59 -100 1195 0 c658 0 1196 2 1196 5 0 13 -25 60
-32 60 -5 0 -8 4 -8 10 0 5 -18 39 -40 75 -22 36 -40 70 -40 75 0 6 -3 10 -7
10 -5 0 -13 10 -18 23 -17 34 -59 111 -66 117 -3 3 -34 55 -68 115 -79 136
-72 125 -226 390 -71 121 -135 234 -143 250 -9 17 -18 32 -22 35 -4 3 -20 30
-37 60 -70 127 -87 155 -97 162 -6 4 -7 8 -2 8 5 0 2 8 -7 18 -8 9 -20 28 -26
42 -6 14 -20 39 -31 55 -11 17 -23 37 -27 45 -7 16 -77 134 -93 160 -6 8 -17
29 -25 45 -9 17 -24 44 -34 60 -17 27 -267 459 -406 700 -31 55 -72 125 -90
155 -18 30 -47 80 -64 110 -47 83 -111 193 -121 210 -12 18 -85 146 -131 228
-12 20 -42 73 -68 117 -26 44 -51 87 -55 95 -4 8 -17 31 -29 51 -12 20 -36 61
-53 90 -17 30 -40 70 -51 89 -92 157 -123 213 -123 221 0 5 -4 9 -10 9 -5 0
-10 4 -10 10 0 5 -20 44 -45 86 -25 41 -45 78 -45 81 0 3 -8 17 -19 31 -10 15
-29 47 -43 72 -14 25 -35 61 -47 80 -11 19 -24 42 -28 50 -4 8 -42 74 -85 148
-43 73 -78 136 -78 140 0 5 -5 13 -12 20 -11 11 -51 79 -96 162 -10 19 -50 89
-89 155 -39 66 -83 140 -97 165 -15 25 -34 61 -44 80 -9 19 -25 44 -34 54 -10
11 -18 23 -18 27 0 4 -36 68 -79 144 l-79 136 -37 -63 c-21 -35 -47 -79 -57
-98 -25 -45 -78 -136 -100 -175 -10 -16 -29 -50 -43 -75 -14 -25 -30 -52 -35
-60 -5 -8 -35 -60 -66 -115 -32 -55 -65 -113 -75 -130 -10 -16 -30 -52 -45
-80 -14 -27 -35 -62 -45 -77 -11 -14 -19 -29 -19 -32 0 -3 -14 -29 -31 -58
-18 -29 -40 -68 -50 -85 -41 -71 -60 -104 -144 -248 -48 -82 -101 -175 -118
-205 -16 -30 -38 -66 -47 -80 -9 -14 -36 -59 -59 -100 -23 -41 -51 -91 -63
-110 -29 -50 -168 -289 -188 -325 -40 -71 -248 -429 -305 -525 -56 -95 -103
-176 -161 -278 -69 -120 -318 -551 -330 -569 -8 -13 -15 -26 -15 -30 -1 -5
-10 -19 -20 -32 -11 -13 -19 -30 -19 -37 0 -8 -4 -14 -10 -14 -5 0 -10 -4 -10
-9 0 -5 -38 -75 -85 -156 -47 -81 -85 -149 -85 -150 0 -1 -25 -44 -55 -94 -30
-51 -55 -96 -55 -101 0 -6 -4 -10 -8 -10 -4 0 -13 -12 -19 -28 -7 -15 -25 -49
-41 -77 -30 -52 -271 -474 -305 -535 -10 -19 -27 -46 -36 -59 l-17 -23 -392
-2 c-425 -1 -412 -3 -374 52 10 15 36 59 57 97 21 39 43 73 49 77 6 4 7 8 2 8
-5 0 -4 6 2 13 9 10 85 141 219 376 14 25 39 67 54 93 16 27 29 53 29 58 0 6
5 10 10 10 6 0 10 4 10 10 0 5 31 63 70 129 39 66 70 125 70 131 0 5 5 10 10
10 6 0 10 4 10 10 0 5 22 47 49 92 27 46 59 101 71 123 75 135 115 202 128
218 8 9 12 17 8 17 -4 0 6 19 22 43 16 23 32 52 36 65 4 12 12 22 17 22 5 0 9
4 9 9 0 8 105 196 139 251 6 8 22 38 37 65 14 28 32 57 38 65 6 8 21 33 33 55
11 22 30 56 42 75 11 19 34 60 51 90 58 104 65 115 73 118 4 2 7 10 7 17 0 8
7 21 16 29 8 9 13 16 10 16 -3 0 10 25 29 55 19 30 35 58 35 64 0 5 6 16 13
23 12 13 28 40 64 108 10 19 21 37 24 40 4 3 18 28 33 55 14 28 40 73 56 100
17 28 33 58 37 68 3 9 9 17 14 17 5 0 9 4 9 10 0 5 47 90 105 190 58 99 105
182 105 184 0 2 25 45 55 95 30 51 55 96 55 101 0 6 3 10 8 10 4 0 14 14 21
32 8 18 27 51 43 74 15 23 28 44 28 47 0 3 26 50 58 104 32 54 61 105 65 113
4 8 17 31 28 50 12 19 61 105 110 190 50 85 94 162 100 170 5 8 15 27 22 43 6
15 15 27 19 27 4 0 8 6 8 14 0 8 6 21 13 28 6 8 18 24 25 37 17 29 45 79 73
129 55 96 74 127 81 130 4 2 8 9 8 15 0 7 16 39 36 72 20 33 47 80 61 105 13
25 35 63 49 85 13 22 44 76 69 120 26 44 55 96 67 115 119 203 156 270 150
271 -17 3 -769 4 -784 1z"/>
</g>
</svg>
