<svg xmlns:xlink="http://www.w3.org/1999/xlink" xmlns="http://www.w3.org/2000/svg" viewBox="0 0 369.6711409395973 40.421701478211396" preserveAspectRatio="xMidYMid meet" width="20" height="20"><defs id="SvgjsDefs7124"></defs><g id="SvgjsG7125" featurekey="monogramFeature-0" transform="matrix(0.913497390007457,0,0,0.913497390007457,17,-18.388138437520023)" fill="#11999E"><path d="M29.64 45.96 l2.7 -4.68 l8.16 14.04 l5.4 0 c-1.2 -1.92 -12.6 -21.42 -13.56 -23.34 l-11.76 20.4 l-4.38 7.62 l-16.2 0 c0.9 -1.5 6.96 -12.06 12.78 -22.2 c3.42 -5.94 7.2 -12.6 11.46 -19.86 l5.4 0 l-11.16 19.32 l-10.38 18.06 l5.4 0 c7.38 -13.02 12 -20.7 18.84 -32.7 c0.42 0.72 21.54 37.32 21.66 37.38 l-16.2 0 z" fill="#11999E"></path></g><g id="SvgjsG7126" featurekey="nameFeature-0" transform="matrix(0.913502568711976,0,0,0.913502568711976,68.99999956440803,-3.8791014664621795)" fill="#40514E"><path d="M8.84 12.2 l0 27.8 l-2.32 0 l0 -27.8 l-6.52 0 l0 -2.2 l15.36 0 l0 2.2 l-6.52 0 z M37.071000000000005 40.36 c-5.04 0 -7.56 -2.64 -7.56 -7.92 l0 -14.8 c0 -2.6667 0.63332 -4.6532 1.9 -5.96 s3.3134 -1.96 6.14 -1.96 c2.5867 0 4.5 0.66 5.74 1.98 s1.86 3.2733 1.86 5.86 l0 14.88 c0 1.3333 -0.14 2.4933 -0.42 3.48 s-0.74 1.8134 -1.38 2.48 s-1.4733 1.16 -2.5 1.48 s-2.2867 0.48 -3.78 0.48 z M43.031000000000006 17.52 c0 -0.66668 -0.09328 -1.3468 -0.27996 -2.0401 s-0.49336 -1.3266 -0.92004 -1.9 s-0.99336 -1.04 -1.7 -1.4 s-1.58 -0.54 -2.62 -0.54 c-1.1467 0 -2.1 0.16 -2.86 0.48 s-1.36 0.76668 -1.8 1.34 s-0.75332 1.2466 -0.94 2.02 s-0.28 1.6133 -0.28 2.52 l0 14.2 c0 0.69332 0.08 1.4 0.24 2.12 s0.44668 1.38 0.86 1.98 s0.97332 1.0933 1.68 1.48 s1.5934 0.58 2.66 0.58 c1.1467 0 2.1 -0.15332 2.86 -0.46 s1.3667 -0.72668 1.82 -1.26 s0.78 -1.1666 0.98 -1.9 s0.3 -1.5266 0.3 -2.38 l0 -14.84 z M79.462 40 l0 -25.44 l-7.24 17.32 l-2.24 -0.04 l-7.08 -17.32 l0 25.48 l-1.96 0 l0 -30 l2.08 0 l8.12 19.52 l8.16 -19.52 l2.12 0 l0 30 l-1.96 0 z M98.21300000000001 40 l0 -30 l2.56 0 l0 30 l-2.56 0 z M131.12400000000002 32.44 c-0.02668 1.3333 -0.15316 2.5 -0.37984 3.5 s-0.61336 1.8267 -1.16 2.48 s-1.2667 1.14 -2.16 1.46 s-2.02 0.48 -3.38 0.48 c-2.3467 0 -4.0532 -0.65332 -5.12 -1.96 s-1.6 -3.2934 -1.6 -5.96 l0 -14.8 c0 -2.6667 0.54 -4.6532 1.62 -5.96 s2.9267 -1.96 5.54 -1.96 c2.3467 0 4.0268 0.65332 5.04 1.96 s1.5466 3.2934 1.6 5.96 l0.04 1.84 l-1.84 0 l-0.04 -2.32 c0 -0.66668 -0.06668 -1.34 -0.2 -2.02 s-0.37332 -1.3 -0.72 -1.86 s-0.83336 -1.0133 -1.46 -1.36 s-1.46 -0.52 -2.5 -0.52 c-1.0133 0 -1.86 0.16 -2.54 0.48 s-1.22 0.76 -1.62 1.32 s-0.67332 1.22 -0.82 1.98 s-0.22 1.58 -0.22 2.46 l0.08 15 c0 1.84 0.34 3.28 1.02 4.32 s1.9267 1.56 3.74 1.56 c1.04 0 1.9 -0.14 2.58 -0.42 s1.2133 -0.67332 1.6 -1.18 s0.66 -1.12 0.82 -1.84 s0.24 -1.5067 0.24 -2.36 l0.04 -2.6 l1.84 0 z M183.66600000000003 40 l-2.2 -8.84 l-9.76 0 l-2.2 8.84 l-2 0 l8.28 -30 l1.72 0 l8.24 30 l-2.08 0 z M176.70600000000002 11.879999999999999 l-4.52 17.36 l8.76 0 z M207.937 40.36 c-1.3067 0 -2.4669 -0.17348 -3.4802 -0.52016 s-1.8666 -0.9 -2.56 -1.66 s-1.2066 -1.7533 -1.54 -2.98 s-0.47332 -2.7067 -0.42 -4.44 l2.4 0 c0 0.85332 0.04 1.74 0.12 2.66 s0.29332 1.76 0.64 2.52 s0.87336 1.38 1.58 1.86 s1.6867 0.72 2.94 0.72 c1.0667 0 1.9734 -0.16 2.72 -0.48 s1.3534 -0.74668 1.82 -1.28 s0.79336 -1.16 0.98004 -1.88 s0.28 -1.4667 0.28 -2.24 c0 -0.90668 -0.16668 -1.7 -0.5 -2.38 s-0.77332 -1.2867 -1.32 -1.82 s-1.1867 -1.0066 -1.92 -1.42 s-1.5 -0.78 -2.3 -1.1 c-1.28 -0.50668 -2.4 -1.0067 -3.36 -1.5 s-1.7467 -1.0466 -2.36 -1.66 s-1.0733 -1.3266 -1.38 -2.14 s-0.46 -1.8066 -0.46 -2.98 c0 -2.6667 0.7 -4.6532 2.1 -5.96 s3.4067 -1.96 6.02 -1.96 c2.2667 0 4.06 0.66 5.38 1.98 s1.98 3.3 1.98 5.94 l0 2.2 l-2.24 0 l0 -2.4 c0 -0.82668 -0.1 -1.5934 -0.3 -2.3 s-0.51332 -1.3267 -0.94 -1.86 s-0.96668 -0.95332 -1.62 -1.26 s-1.4333 -0.46 -2.34 -0.46 c-2.1333 0 -3.66 0.56 -4.58 1.68 s-1.34 2.6267 -1.26 4.52 c0.02668 0.82668 0.18 1.5334 0.46 2.12 s0.65332 1.1 1.12 1.54 s1.0267 0.83332 1.68 1.18 s1.38 0.69336 2.18 1.04 c0.93332 0.4 1.86 0.82668 2.78 1.28 s1.78 1.0133 2.58 1.68 c0.8 0.69332 1.46 1.5 1.98 2.42 s0.78 2.06 0.78 3.42 c0 2.64 -0.67332 4.62 -2.02 5.94 s-3.22 1.98 -5.62 1.98 z M237.68800000000002 28.72 l-4.32 0 l0 11.28 l-2.32 0 l0 -30 l7.24 0 c2.64 0 4.7132 0.80668 6.22 2.42 s2.26 3.9533 2.26 7.02 c0 1.36 -0.22 2.6067 -0.66 3.74 s-1.06 2.1133 -1.86 2.94 s-1.7533 1.4667 -2.86 1.92 s-2.34 0.68 -3.7 0.68 z M237.48800000000003 12.04 l-4.12 0.000039062 l0 14.48 l3.72 0 c1.36 0 2.5067 -0.19332 3.44 -0.58 s1.6866 -0.90668 2.26 -1.56 s0.98664 -1.4133 1.24 -2.28 s0.38 -1.78 0.38 -2.74 c0 -0.98668 -0.09332 -1.9267 -0.28 -2.82 s-0.53336 -1.6733 -1.04 -2.34 s-1.2134 -1.1934 -2.12 -1.58 s-2.0667 -0.58 -3.48 -0.58 z M262.27900000000005 40 l0 -30 l2.56 0 l0 30 l-2.56 0 z M296.2300000000001 40 l-6.6 -12.44 l-6.12 0 l0 12.44 l-1.96 0 l0 -30 l6.8 0 c1.5733 0 2.92 0.23332 4.04 0.7 s2.04 1.1 2.76 1.9 s1.2533 1.7267 1.6 2.78 s0.52 2.1533 0.52 3.3 c0 1.9467 -0.5 3.7 -1.5 5.26 s-2.3133 2.7 -3.94 3.42 l7.04 12.64 l-2.64 0 z M288.07000000000005 11.84 l-4.56 -0.000039062 l0 13.68 l4.84 0 c1.36 0 2.48 -0.20668 3.36 -0.62 s1.5667 -0.94664 2.06 -1.6 s0.84 -1.4 1.04 -2.24 s0.3 -1.7 0.3 -2.58 c0 -0.93332 -0.16 -1.8 -0.48 -2.6 s-0.78 -1.5 -1.38 -2.1 s-1.3333 -1.0733 -2.2 -1.42 s-1.86 -0.52 -2.98 -0.52 z M314.1410000000001 40 l0 -30 l14.72 0 l0 2.32 l-12.64 0 l0 11.4 l12.52 0 l0 1.84 l-12.52 0 l0 12.12 l12.92 0 l0 2.32 l-15 0 z" fill="#40514E"></path></g></svg>