<?xml version="1.0" encoding="iso-8859-1"?>
<!-- Generator: Adobe Illustrator 21.0.2, SVG Export Plug-In . SVG Version: 6.00 Build 0)  -->
<svg xmlns="http://www.w3.org/2000/svg" xmlns:xlink="http://www.w3.org/1999/xlink" version="1.1" id="Layer_1" x="0px" y="0px" viewBox="0 0 40 40" style="enable-background:new 0 0 40 40;" xml:space="preserve">
<g>
	<g>
		<path style="fill:#98CCFD;" d="M17.519,38.475c-0.592,0-1.147-0.229-1.565-0.648L2.148,24.022c-0.862-0.863-0.862-2.269,0-3.132    L20.539,2.523C21.2,1.863,22.078,1.5,23.013,1.5H35c1.93,0,3.5,1.57,3.5,3.5v12.008c0,0.923-0.375,1.826-1.028,2.478    l-18.388,18.34C18.666,38.245,18.11,38.475,17.519,38.475z M33,4.5c-1.379,0-2.5,1.121-2.5,2.5s1.121,2.5,2.5,2.5    s2.5-1.121,2.5-2.5S34.379,4.5,33,4.5z"/>
	</g>
	<g>
		<path style="fill:#4788C7;" d="M35,2c1.654,0,3,1.346,3,3v12.008c0,0.803-0.313,1.557-0.881,2.124L18.731,37.473    c-0.324,0.324-0.754,0.502-1.212,0.502c-0.458,0-0.888-0.178-1.212-0.502L2.502,23.669C2.178,23.345,2,22.914,2,22.456    c0-0.458,0.178-0.888,0.502-1.212L20.893,2.877C21.459,2.312,22.212,2,23.012,2H35 M33,10c1.654,0,3-1.346,3-3s-1.346-3-3-3    c-1.654,0-3,1.346-3,3S31.346,10,33,10 M35,1H23.012c-1.06,0-2.077,0.421-2.827,1.17L1.795,20.537c-1.06,1.06-1.06,2.779,0,3.839    L15.599,38.18c0.53,0.53,1.225,0.795,1.919,0.795c0.695,0,1.389-0.265,1.919-0.795l18.387-18.34C38.577,19.09,39,18.071,39,17.008    V5C39,2.791,37.209,1,35,1L35,1z M33,9c-1.105,0-2-0.896-2-2c0-1.105,0.895-2,2-2s2,0.895,2,2C35,8.104,34.105,9,33,9L33,9z"/>
	</g>
</g>
<g>
	<g>
		<path style="fill:#FFFFFF;" d="M19.607,27.879l-4.635-4.635c0.83-0.32,1.598-0.813,2.261-1.476l1.667-1.667l2.121-1.902    l1.344-1.344C23.218,16.001,23.546,16,23.703,16c0.514-0.001,1.14,0.184,1.661,0.706C25.757,17.098,27,19,27,19l2.082-1.791    c-0.355-0.832-0.975-1.824-1.697-2.546c-1.071-1.071-2.341-1.666-3.688-1.663c-1.347,0.003-2.399,0.68-3.453,1.733l-2.051,1.832    l-1.414-1.414l-1.414,1.414l1.414,1.414l-1.667,1.667c-1.275,1.275-3.137,1.292-4.697,0.454L9,21.515L17.485,30L19.607,27.879z"/>
		
			<rect x="14.899" y="17.686" transform="matrix(0.7071 0.7071 -0.7071 0.7071 18.7487 -7.8909)" style="fill:#FFFFFF;" width="8" height="2"/>
	</g>
</g>
</svg>
